<svg width="102" height="84" viewBox="0 0 110 92" fill="none" xmlns="http://www.w3.org/2000/svg">
<g filter="url(#filter0_d_73_296)">
<path d="M4 0L54.6 59.1L105.7 0H4Z" fill="#23A9E1"/>
<path d="M54.9 0H4V22.5L54.6 84L54.9 83.6L105.6 23.2V0H54.9ZM54.9 57.1L54.6 57.5L7.7 1.8H54.9H102.1L54.9 57.1Z" fill="#491213"/>
<path d="M54.6 57.5L54.9 57.1L82.5 24.8C75.6 25.7 70.6 30.9 63.9 29.8C60.5 29.2 60.4 27.3 59.4 25.3C58.7 23.8 57.5 24 55.9 23.4C54.5 22.8 53.6 21.7 50.7 22.3C48.2 22.9 47.9 26.8 44.7 26.6C43 26.5 42.9 24.1 40.5 21.1C34.2 13.5 28.3 14.6 24.3 21.6L54.6 57.5Z" fill="#491213"/>
<path d="M27.3 32.2C27.8 32.8 28.2 33.5 28.1 34.3C28 34.9 27.2 35.8 27.8 36.1C28.5 35.2 29.3 34.2 30 33.3C29.4 33.1 24.6 27.5 24.6 26.8C23.5 27.4 22.5 28 21.4 28.5C21.6 29.2 22.7 28.5 23.3 28.5C24.1 28.6 24.7 29.1 25.3 29.7C23.6 31.1 19.4 34.7 18.9 34.8C18.7 34.8 17.8 34.2 17.8 34.7C17.8 35 18.7 35.7 18.8 35.9C19.5 36.8 20.3 37.7 21 38.6C21.6 38.3 20.9 37.9 21.2 37.4C21.5 37.1 26.1 33.2 27.3 32.2Z" fill="white"/>
<path d="M22 25.3C22.4 25.2 22.6 25.7 23 25.2C22.2 24.2 21.4 23.3 20.6 22.3C20.2 21.9 19.8 21.4 19.9 22.3C20 22.9 13.8 28 13.4 28.1C12.9 28.3 12.6 27.7 12.3 28.2C13 29.1 13.8 29.9 14.5 30.8C14.7 31.1 15 31.4 15.2 31.7C15.5 32 15.4 31 15.4 31.1C15.3 30.6 15.9 30.2 16.3 29.9C17.8 28.5 21.6 25.3 22 25.3Z" fill="white"/>
<path d="M13.2 24.4C11.4 24.9 9.6 24.2 9 22.4C8.5 20.6 9.6 18.6 11.1 17.6C12.5 16.6 14.7 16.6 15.5 18.4C15.8 19.2 15.7 20.1 15.4 20.9C15.2 21.4 14.8 21.9 15.5 22.2C16.4 21.1 17.2 20 18.1 18.9C17 18.3 16.6 17.2 15.8 16.3C14.9 15.2 13.7 14.2 12.3 14C9.4 13.6 6.7 16.6 6.5 19.2C6.4 20.7 6.9 22 7.7 23.2C8.5 24.2 9.6 24.8 10.1 26C10.4 26.1 12.8 25 13.4 24.7C13.3 24.6 13.3 24.4 13.2 24.4C12.5 24.6 13.2 24.4 13.2 24.4Z" fill="white"/>
<path d="M52.5 60.8C51.3 60 48.5 56.1 47.9 55.5C47.8 55.4 47.7 55.2 47.6 55.1C47.6 55.1 47.3 55.3 47.4 55.3C47.2 55.4 47.5 55.9 47.3 56.2C46.5 57.4 41.5 61.2 41.3 61.4C40.7 61.8 40.1 61.2 39.8 61.7C40.5 62.6 42.6 65.2 42.8 65.3C43.3 65.4 42.9 64.5 43 64.3C43.1 63.9 45.6 61.9 46.5 61.1C46.8 60.8 47.2 61.5 47.4 61.8C47.7 62.3 47.9 62.8 47.7 63.4C47.6 63.8 47 64.3 47.4 64.6C48 63.9 49.8 61.8 50 61.6C50.3 61.3 49.4 61.6 49.5 61.5C49.1 61.7 48.8 61.7 48.4 61.5C48.3 61.4 47.3 60.4 47.4 60.3C47.8 59.9 48.4 59.3 48.9 59.2C49.8 59 50.5 60.7 50.6 61.3C50.7 61.9 50.7 62.5 50.5 63.1C50.4 63.5 50 63.8 50.5 64C51.2 63 51.9 62.1 52.6 61.1C52.8 60.9 52.6 60.8 52.5 60.8C52.4 60.7 52.7 60.8 52.5 60.8Z" fill="white"/>
<path d="M42.3 56.6C44.5 54.7 44.8 51.5 43.1 49.3C41.2 46.8 37.7 46.2 35.3 48.2C33.1 50.1 32.8 53.2 34.5 55.5C36.5 58.2 39.7 58.5 42.3 56.6C43.5 55.7 42.2 56.7 42.3 56.6ZM41.8 51.9C41.2 53.4 39.6 55 38.1 55.6C36.3 56.3 35 54.8 35.7 53C36.3 51.5 37.9 49.9 39.4 49.3C41.3 48.6 42.5 50.2 41.8 51.9C41.5 52.8 41.9 51.7 41.8 51.9Z" fill="white"/>
<path d="M35.9 42C36.4 42.1 36.8 42.6 37.2 42C36.5 41.1 35.7 40.2 35 39.4C34.4 39.7 35 39.9 34.8 40.4C34.6 40.8 32.2 41.2 31.6 41.3C31.8 40.7 32.5 38.7 32.8 38.5C33.3 38.1 33.7 38.9 34.1 38.4C33.2 37.3 32.3 36.2 31.4 35.1C31.1 34.7 30.8 34.1 30.4 34.4C30.4 34.4 30.4 35.9 30.3 36.1C30.2 36.3 29.4 39.7 28.4 40.6C27.9 41 26.2 42.5 25.7 42.7C25.2 42.9 24.9 42.1 24.5 42.7C25.3 43.7 26.2 44.7 27 45.7C27.1 45.8 27.6 46.6 27.8 46.6C28.3 46.7 27.9 45.7 27.9 45.5C28.1 45.1 30.4 42.8 31.4 42.6C32.6 42.3 34.4 41.8 35.9 42C36.2 42.1 35.5 42 35.9 42Z" fill="white"/>
<path d="M73.2 52.4C73.4 53 73.5 53.7 73.4 54.4C73.3 55.3 72.4 57.3 71.2 56.7C70 56.1 69 55 68 54.1C68.8 53.2 69.5 52.4 70.9 52.8C71.3 52.9 71.6 52.8 71.2 52.5C70.8 52.3 68.1 50.5 67.9 50.7C67.6 51 68.4 51.6 68.1 52.2C67.9 52.6 67.5 53 67.2 53.4C66.5 52.8 65.3 52.1 66.1 51.1C66.6 50.4 67.4 49.9 68.2 49.8C68.8 49.7 70 50.2 70.2 49.6C69.1 49.1 68 48.6 66.9 48C67.1 48.8 63.6 52.5 62.8 53.5C62.7 53.6 62.1 54.1 62.1 54.3C62.1 54.7 62.7 54.4 62.8 54.4C63.3 54.2 69.6 59.5 69.8 59.9C69.9 60.2 69.6 60.5 69.8 60.6C69.8 60.6 70 60.8 70.1 60.8C70.5 60.3 74.6 54.8 75.5 54.6C74.7 53.4 73.9 52.2 73.1 50.9C72.5 51.3 73.1 52 73.2 52.4Z" fill="white"/>
<path d="M67 59.2C64.9 57.9 61.4 60.5 60.9 60.7C59.9 61.2 59.1 60.2 59.6 59.2C60.1 58.4 61 58 61.9 57.9C62.2 57.9 63.3 58.1 63.4 57.9C63.5 57.7 63.6 57.7 63.4 57.6C62.5 57 61.7 56.4 60.8 55.9C60.6 57 59.4 57.6 58.7 58.3C57.9 59.2 57.2 60.2 57.2 61.5C57.2 62.6 57.9 63.6 58.9 64.2C60 64.8 61.2 64.3 62.2 63.7C62.8 63.3 63.5 62.8 64.1 62.5C65.1 62 66.4 62.4 66.1 63.8C65.8 64.9 64.7 65.9 63.7 66.1C63.1 66.3 62.4 66.2 61.8 66C61.4 65.9 60.8 65.3 60.6 65.9C61.8 66.7 62.9 67.6 64.1 68.4C64.2 67.6 64.6 67.3 65.2 66.8C65.9 66.2 66.6 65.5 67.2 64.7C68.4 63 68.8 60.6 67 59.2Z" fill="white"/>
<path d="M67 59.2C68 59.7 66.4 58.7 67 59.2V59.2Z" fill="white"/>
<path d="M103.7 19.6C103 20.3 95.3 17.3 94.7 16.8C94.4 16.7 94.4 15.5 94 16C93.6 16.5 93.2 17 92.8 17.5C92.4 18 92 18.5 91.5 19C91.2 19.3 91 19.5 91.5 19.7C92.3 19.3 96.9 27 96.5 28.2C95.8 28.6 89.6 23.1 89.4 22.8C89.3 22.7 89.7 21.8 89.2 21.9C89 21.9 88.5 22.8 88.3 23C88 23.4 87.7 23.7 87.4 24.1C87.7 24.6 87.9 24.1 88.4 24.1C88.8 24.2 90.2 25.4 90.6 25.8C89.9 25.8 87.9 25.9 87.7 25.9C86.8 26 87.3 25.2 86.7 25C85.9 25.9 85.2 26.8 84.4 27.8C84 28.3 83.5 28.9 83.1 29.4C83 29.5 83.1 29.4 83.2 29.5C83.5 29.8 83.3 29.7 83.8 29.5C84.3 29.3 90.4 34.4 90.6 34.7C91 35.2 90.4 35.7 91 35.9C91.6 35.2 92.2 34.4 92.8 33.7C92.9 33.6 92.9 33.6 92.8 33.5C92.4 33.1 92.3 33.7 91.8 33.7C91.3 33.6 87.4 30.3 85.9 29.1C87.7 29 93.2 28.8 94.1 28.8C94.4 28.8 95.2 29.7 95.2 30C95.1 30.4 94.7 30.6 95.3 30.8C95.8 30.2 96.3 29.7 96.8 29.1L97 28.8C97.1 28.7 97.1 28.7 97.2 28.5L97.4 28.3C97.8 27.8 99.2 26.3 99 26.1C98.5 25.7 98.3 26.6 97.7 26C97.4 25.8 96.5 24.2 96.3 23.8C96 23.4 96.9 22.9 97.3 22.7C98.1 22.2 100.5 21.5 100.8 23C100.8 23.3 100.5 23.5 100.7 23.7C100.7 23.7 100.9 23.9 101 23.9C101.2 23.7 103.4 21.1 104.3 19.9C103.9 19.8 103.8 19.7 103.7 19.6ZM96.3 21.8C96.4 21.7 96.5 21.7 96.3 21.8C96 22 95.6 22.3 95.3 22.6C94.8 21.7 94.3 20.8 93.7 19.9C94.9 20.4 96.1 20.9 97.2 21.4C97 21.4 96.7 21.6 96.3 21.8Z" fill="white"/>
<path d="M86.6 33C84.2 31 81 31.6 79 33.8C77.1 36.1 77.3 39.5 79.6 41.4C81.9 43.3 85.3 42.8 87.2 40.6C89.1 38.3 89 34.9 86.6 33ZM86.3 39.6C85 40.9 82.9 39.7 81.8 38.9C80.7 38.1 78.7 36.3 79.9 34.8C81 33.5 83 34.6 84.1 35.3C85.3 36.1 87.5 37.9 86.4 39.5C86.5 39.4 86.5 39.4 86.3 39.6Z" fill="white"/>
<path d="M86.6 33C87.8 34 86.3 32.8 86.6 33V33Z" fill="white"/>
<path d="M86.3 39.6C86.4 39.5 86.4 39.5 86.4 39.5C86.3 39.6 86.3 39.6 86.3 39.6Z" fill="white"/>
<path d="M80 42.1C80.1 42.2 80.3 42.3 80 42.1C77.1 39.9 73.7 40.5 71.5 43.2C70.5 44.4 69.5 45.6 68.5 46.8C68.9 47.3 69.3 46.7 69.8 47C70.2 47.3 76 52.1 76.1 52.4C76.3 52.9 75.8 52.9 76.2 53.3C76.4 53.4 80.7 48.1 81.1 47.1C82 45.3 81.4 43.3 80 42.1ZM78.7 48.9C78.5 49.2 78.7 49 78 49.6C77.7 49.9 71.6 44.9 71.8 44.7C72.6 43.8 74.4 43.1 75.4 43.4C77.6 43.8 80.6 46.5 78.7 48.9Z" fill="white"/>
<path d="M54.6 57.5L54.9 57.1L82.5 24.8C75.6 25.7 70.6 30.9 63.9 29.8C60.5 29.2 60.4 27.3 59.4 25.3C58.7 23.8 57.5 24 55.9 23.4C54.5 22.8 53.6 21.7 50.7 22.3C48.2 22.9 47.9 26.8 44.7 26.6C43 26.5 42.9 24.1 40.5 21.1C34.2 13.5 28.3 14.6 24.3 21.6L54.6 57.5Z" fill="#491213"/>
<path d="M50.5 70.9L54.6 64.4L58.6 70.9L54.6 77.4L50.5 70.9Z" fill="#23A9E1"/>
<path d="M27.3 32.3C27.8 32.9 28.2 33.6 28.1 34.4C28 35 27.2 36 27.8 36.2C28.5 35.3 29.3 34.3 30 33.4C29.4 33.2 24.6 27.6 24.6 26.9C23.5 27.5 22.5 28.1 21.4 28.6C21.6 29.3 22.7 28.6 23.3 28.6C24.1 28.7 24.7 29.2 25.3 29.8C23.6 31.2 19.4 34.8 18.9 34.9C18.7 34.9 17.8 34.3 17.8 34.8C17.8 35.1 18.7 35.8 18.8 36C19.5 36.9 20.3 37.8 21 38.7C21.6 38.4 20.9 38 21.2 37.5C21.5 37.1 26.1 33.2 27.3 32.3Z" fill="white"/>
<path d="M22 25.3C22.4 25.2 22.6 25.7 23 25.2C22.2 24.2 21.4 23.3 20.6 22.3C20.2 21.9 19.8 21.4 19.9 22.3C20 22.9 13.8 28 13.4 28.1C12.9 28.3 12.6 27.7 12.3 28.2C13 29.1 13.8 29.9 14.5 30.8C14.7 31.1 15 31.4 15.2 31.7C15.5 32 15.4 31 15.4 31.1C15.3 30.6 15.9 30.2 16.3 29.9C17.8 28.6 21.6 25.3 22 25.3Z" fill="white"/>
<path d="M13.2 24.4C11.4 24.9 9.5 24.2 9 22.4C8.5 20.6 9.6 18.6 11.1 17.6C12.5 16.6 14.7 16.6 15.5 18.4C15.8 19.2 15.7 20.1 15.4 20.9C15.2 21.4 14.8 21.9 15.5 22.2C16.4 21.1 17.2 20 18.1 18.9C17 18.3 16.6 17.2 15.8 16.3C14.9 15.2 13.7 14.2 12.3 14C9.4 13.6 6.7 16.6 6.5 19.2C6.4 20.7 6.9 22 7.7 23.2C8.5 24.2 9.6 24.8 10.1 26C10.4 26.1 12.8 25 13.4 24.7C13.3 24.6 13.3 24.5 13.2 24.4C12.5 24.6 13.2 24.4 13.2 24.4Z" fill="white"/>
<path d="M52.5 60.8C51.3 60 48.5 56.1 47.9 55.5C47.8 55.4 47.7 55.2 47.6 55.1C47.6 55.1 47.3 55.3 47.4 55.3C47.2 55.4 47.5 55.9 47.3 56.2C46.5 57.4 41.5 61.2 41.3 61.4C40.7 61.8 40.1 61.2 39.8 61.7C40.5 62.6 42.6 65.2 42.8 65.3C43.3 65.4 42.9 64.5 43 64.3C43.1 63.9 45.6 61.9 46.5 61.1C46.8 60.8 47.2 61.5 47.4 61.8C47.7 62.3 47.9 62.8 47.7 63.4C47.6 63.8 47 64.3 47.4 64.6C48 63.9 49.8 61.8 50 61.6C50.3 61.3 49.4 61.6 49.5 61.5C49.1 61.7 48.8 61.7 48.4 61.5C48.3 61.4 47.3 60.4 47.4 60.3C47.8 59.9 48.4 59.3 48.9 59.2C49.8 59 50.5 60.7 50.6 61.3C50.7 61.9 50.7 62.5 50.5 63.1C50.4 63.5 50 63.8 50.5 64C51.2 63 51.9 62.1 52.6 61.1C52.8 60.9 52.6 60.8 52.5 60.8C52.4 60.7 52.7 60.8 52.5 60.8Z" fill="white"/>
<path d="M42.3 56.6C44.5 54.7 44.8 51.5 43.1 49.3C41.2 46.8 37.7 46.2 35.3 48.2C33.1 50.1 32.8 53.2 34.5 55.5C36.5 58.2 39.7 58.5 42.3 56.6C43.5 55.7 42.2 56.7 42.3 56.6ZM41.8 51.9C41.2 53.4 39.6 55 38.1 55.6C36.3 56.3 35 54.8 35.7 53C36.4 51.5 37.9 49.9 39.4 49.3C41.3 48.6 42.5 50.2 41.8 51.9C41.4 52.8 41.9 51.7 41.8 51.9Z" fill="white"/>
<path d="M35.9 42C36.4 42.1 36.8 42.5 37.2 42C36.5 41.1 35.7 40.2 35 39.4C34.4 39.7 35 39.9 34.8 40.4C34.6 40.8 32.2 41.2 31.6 41.3C31.8 40.7 32.5 38.7 32.8 38.5C33.3 38.1 33.7 38.9 34.1 38.4C33.2 37.3 32.3 36.2 31.4 35.1C31.1 34.7 30.8 34.1 30.4 34.4C30.4 34.4 30.4 35.9 30.3 36.1C30.2 36.3 29.4 39.7 28.4 40.6C27.9 41 26.2 42.5 25.7 42.7C25.2 42.9 24.9 42.1 24.5 42.7C25.3 43.7 26.2 44.7 27 45.7C27.1 45.8 27.6 46.6 27.8 46.6C28.3 46.7 27.9 45.7 27.9 45.5C28.1 45.1 30.4 42.8 31.4 42.6C32.6 42.4 34.4 41.9 35.9 42C36.2 42.1 35.5 42 35.9 42Z" fill="white"/>
<path d="M29.6 22.9C25.6 22.7 27.2 18.9 30 18.1C32.6 17.3 38.1 19.8 39.8 21.5C37 22.4 33.4 22.2 30.4 22.4C30.2 19.2 29.4 20.3 29.6 22.9Z" fill="#DC6243"/>
<path d="M30.6 27.7C28.6 26.1 29.2 22.4 32.4 23.6C36.4 25.7 31.5 26.8 30.6 27.7Z" fill="#DC6243"/>
<path d="M39.1 35.4C30.5 35.3 36.3 22.1 39.2 22.9C42.6 24 42.2 35.5 39.1 35.4Z" fill="#DC6243"/>
<path d="M49.3 40.7C45.8 41.7 41.2 39.5 46.8 38.4C50.3 37.7 54 39.1 49.3 40.7C49.4 40.7 49.2 40.7 49.3 40.7Z" fill="#DC6243"/>
<path d="M45.2 31.1C44.4 33.6 42.8 34.1 43 31C43.2 27.5 45.5 28.3 47.9 27C49.9 25.9 51 21.8 54.5 24.2C56.1 25.3 57.9 24.4 58.4 26C58.4 25.9 53.9 36.3 56.4 36.3C51.4 36.3 53.6 30.4 55.5 26.4C53.7 27.3 50.7 33.1 53.1 34C51.8 35.7 47.9 37.9 45.9 36.3C44.4 35.2 45.2 33.1 45.2 31.1Z" fill="#DC6243"/>
<path d="M53.7 40.6C53 38.9 54.3 37 56.4 38.4C58.2 39.6 55.5 41.5 53.7 40.6Z" fill="#DC6243"/>
<path d="M50.7 45.2C48.3 44.5 40.2 44.6 45.5 42.4C47.2 41.8 55.7 42.6 50.7 45.2Z" fill="#DC6243"/>
<path d="M53.9 44.9C53.9 43.9 53.4 42.2 55.3 43C57.5 43.8 53.9 45.6 53.9 44.9C53.9 44.9 53.9 44.7 53.9 44.9Z" fill="#DC6243"/>
<path d="M61.2 48.5C59.8 47.3 58.3 47.2 57 48.5C55.2 45.2 48.7 46.3 45.6 45.8C47.2 49.9 60.4 50.7 61.2 48.5Z" fill="#DC6243"/>
<path d="M59.3 51C56.1 50.9 52.6 50.4 49.7 51.1C51.6 51.6 56.1 52.9 51.9 54C53.4 56.2 55.9 56 57.5 54.1C56.8 53.8 56.5 53.4 55.9 53C57.5 52.7 59.1 51.8 59.3 51Z" fill="#DC6243"/>
<path d="M62.9 47.1C57.6 44 58.9 41.7 63.3 39.5C65.6 38.4 70.6 34.3 72.7 35.6C69.4 39.5 66.1 43.3 62.9 47.1Z" fill="#DC6243"/>
<path d="M59.1 39.8C54.6 35.2 65.8 35.6 67.6 34C68.9 34.4 78.4 25.7 80.7 26.3C79 28.2 75.5 34.4 72.9 34.4C70.9 34.4 68.9 34.1 67.4 35.5C65.2 37.6 61.5 38.6 59.1 39.8Z" fill="#F49774"/>
<path d="M60.6 34.2C58.1 35.5 55.8 30.3 60.1 30.8C62.9 31.1 65.8 30.6 68.4 31C66.4 33.3 63.7 34.6 60.6 34.2Z" fill="#F4B1A4"/>
<path d="M73.2 52.5C73.4 53.1 73.5 53.8 73.4 54.5C73.3 55.4 72.4 57.4 71.2 56.8C70 56.2 69 55.1 68 54.2C68.8 53.3 69.5 52.5 70.9 52.9C71.3 53 71.6 52.9 71.2 52.6C70.8 52.4 68.1 50.6 67.9 50.8C67.6 51.1 68.4 51.7 68.1 52.3C67.9 52.7 67.5 53.1 67.2 53.5C66.5 52.9 65.3 52.2 66.1 51.2C66.6 50.5 67.4 50 68.2 49.9C68.8 49.8 70 50.3 70.2 49.7C69.1 49.2 68 48.7 66.9 48.1C67.1 48.9 63.6 52.6 62.8 53.6C62.7 53.7 62.1 54.2 62.1 54.4C62.1 54.8 62.7 54.5 62.8 54.5C63.3 54.3 69.6 59.6 69.8 60C69.9 60.3 69.6 60.6 69.8 60.7C69.8 60.7 70 60.9 70.1 60.9C70.5 60.4 74.6 54.9 75.5 54.7C74.7 53.5 73.9 52.3 73.1 51C72.5 51.3 73.1 52 73.2 52.5Z" fill="white"/>
<path d="M67 59.2C64.9 57.9 61.4 60.5 60.9 60.7C59.9 61.2 59.1 60.2 59.6 59.2C60.1 58.4 61 58 61.9 57.9C62.2 57.9 63.2 58.1 63.4 57.9C63.5 57.7 63.6 57.7 63.4 57.6C62.5 57 61.7 56.4 60.8 55.9C60.6 57 59.4 57.6 58.7 58.3C57.9 59.2 57.2 60.2 57.2 61.5C57.2 62.6 57.9 63.6 58.9 64.2C60 64.8 61.2 64.3 62.2 63.7C62.8 63.3 63.5 62.8 64.1 62.5C65.1 62 66.4 62.4 66.1 63.8C65.8 64.9 64.7 65.9 63.7 66.1C63.1 66.3 62.4 66.2 61.8 66C61.4 65.9 60.8 65.3 60.6 65.9C61.8 66.7 62.9 67.6 64.1 68.4C64.2 67.6 64.6 67.3 65.2 66.8C65.9 66.2 66.6 65.5 67.2 64.7C68.4 63 68.8 60.6 67 59.2Z" fill="white"/>
<path d="M67 59.2C68 59.8 66.4 58.7 67 59.2V59.2Z" fill="white"/>
<path d="M103.7 19.6C103 20.3 95.3 17.3 94.7 16.8C94.4 16.7 94.4 15.5 94 16C93.6 16.5 93.2 17 92.8 17.5C92.4 18 92 18.5 91.5 19C91.2 19.3 91 19.5 91.5 19.7C92.3 19.3 96.9 27 96.5 28.2C95.8 28.6 89.6 23.1 89.4 22.8C89.3 22.7 89.7 21.8 89.2 21.9C89 21.9 88.5 22.8 88.3 23C88 23.4 87.7 23.7 87.4 24.1C87.7 24.6 87.9 24.1 88.4 24.1C88.8 24.2 90.2 25.4 90.6 25.8C89.9 25.8 87.9 25.9 87.7 25.9C86.8 26 87.3 25.2 86.7 25C85.9 25.9 85.2 26.8 84.4 27.8C84 28.3 83.5 28.9 83.1 29.4C83 29.5 83.1 29.4 83.1 29.5C83.4 29.8 83.2 29.7 83.7 29.5C84.2 29.3 90.3 34.4 90.5 34.7C90.9 35.1 90.3 35.7 90.9 35.9C91.5 35.2 92.1 34.4 92.7 33.7C92.8 33.6 92.8 33.6 92.7 33.5C92.3 33.1 92.2 33.7 91.7 33.7C91.2 33.6 87.3 30.3 85.8 29.1C87.6 29 93.1 28.8 94 28.8C94.3 28.8 95.1 29.7 95.1 30C95 30.4 94.6 30.6 95.2 30.8C95.7 30.2 96.2 29.7 96.7 29.1L96.9 28.8C97 28.7 97 28.7 97.1 28.5L97.3 28.3C97.7 27.8 99.1 26.3 98.9 26.2C98.4 25.8 98.2 26.7 97.6 26.1C97.3 25.9 96.4 24.3 96.2 23.9C95.9 23.5 96.8 23 97.2 22.8C98 22.3 100.4 21.6 100.7 23.1C100.7 23.4 100.4 23.6 100.6 23.8C100.6 23.8 100.8 24 100.9 24C101.1 23.8 103.3 21.2 104.2 20C103.9 19.8 103.8 19.7 103.7 19.6ZM96.3 21.8C96.4 21.8 96.5 21.7 96.3 21.8C96 22 95.6 22.3 95.3 22.6C94.8 21.7 94.3 20.8 93.7 19.9C94.9 20.4 96.1 20.9 97.2 21.4C97 21.5 96.7 21.6 96.3 21.8Z" fill="white"/>
<path d="M86.6 33C84.2 31 81 31.6 79 33.8C77.1 36.1 77.3 39.5 79.6 41.4C81.9 43.3 85.3 42.8 87.2 40.6C89.1 38.3 89 34.9 86.6 33ZM86.3 39.6C86.3 39.6 86.3 39.7 86.3 39.6C85 40.9 82.9 39.7 81.8 38.9C80.7 38.1 78.7 36.3 79.9 34.8C81 33.5 83 34.6 84.1 35.3C85.3 36.1 87.5 37.9 86.4 39.5C86.5 39.4 86.5 39.4 86.3 39.6Z" fill="white"/>
<path d="M86.6 33C87.8 34 86.3 32.8 86.6 33V33Z" fill="white"/>
<path d="M86.3 39.7C86.3 39.6 86.3 39.6 86.3 39.7C86.4 39.6 86.4 39.6 86.4 39.6C86.3 39.6 86.3 39.7 86.3 39.7Z" fill="white"/>
<path d="M80 42.1C80.1 42.2 80.3 42.4 80 42.1C77.1 39.9 73.7 40.5 71.5 43.2C70.5 44.4 69.5 45.6 68.5 46.8C68.9 47.3 69.3 46.7 69.8 47C70.2 47.3 76 52.1 76.1 52.4C76.3 52.9 75.8 52.9 76.2 53.3C76.4 53.4 80.7 48.1 81.1 47.1C82 45.3 81.4 43.4 80 42.1ZM78.7 48.9C78.5 49.2 78.7 49 78 49.6C77.7 49.9 71.6 44.9 71.8 44.7C72.6 43.8 74.4 43.1 75.4 43.4C77.6 43.9 80.6 46.6 78.7 48.9Z" fill="white"/>
</g>
<defs>
<filter id="filter0_d_73_296" x="0" y="0" width="109.7" height="92" filterUnits="userSpaceOnUse" color-interpolation-filters="sRGB">
<feFlood flood-opacity="0" result="BackgroundImageFix"/>
<feColorMatrix in="SourceAlpha" type="matrix" values="0 0 0 0 0 0 0 0 0 0 0 0 0 0 0 0 0 0 127 0" result="hardAlpha"/>
<feOffset dy="4"/>
<feGaussianBlur stdDeviation="2"/>
<feComposite in2="hardAlpha" operator="out"/>
<feColorMatrix type="matrix" values="0 0 0 0 0 0 0 0 0 0 0 0 0 0 0 0 0 0 0.25 0"/>
<feBlend mode="normal" in2="BackgroundImageFix" result="effect1_dropShadow_73_296"/>
<feBlend mode="normal" in="SourceGraphic" in2="effect1_dropShadow_73_296" result="shape"/>
</filter>
</defs>
</svg>
